<?xml version="1.0" standalone="no"?><!DOCTYPE svg PUBLIC "-//W3C//DTD SVG 1.1//EN" "http://www.w3.org/Graphics/SVG/1.1/DTD/svg11.dtd"><svg t="1586679531127" class="icon" viewBox="0 0 1024 1024" version="1.1" xmlns="http://www.w3.org/2000/svg" p-id="76158" xmlns:xlink="http://www.w3.org/1999/xlink" width="128" height="128"><defs><style type="text/css"></style></defs><path d="M0 0m204.8 0l614.4 0q204.8 0 204.8 204.8l0 614.4q0 204.8-204.8 204.8l-614.4 0q-204.8 0-204.8-204.8l0-614.4q0-204.8 204.8-204.8Z" fill="#FFBB8D" p-id="76159"></path><path d="M819.2 0H534.272A756.48 756.48 0 0 0 0 483.584V819.2a204.8 204.8 0 0 0 204.8 204.8h614.4a204.8 204.8 0 0 0 204.8-204.8V204.8a204.8 204.8 0 0 0-204.8-204.8z" fill="#FFB583" p-id="76160"></path><path d="M819.2 0h-3.84a755.2 755.2 0 0 0-539.392 1024H819.2a204.8 204.8 0 0 0 204.8-204.8V204.8a204.8 204.8 0 0 0-204.8-204.8z" fill="#FFAF78" p-id="76161"></path><path d="M497.152 721.152A752.384 752.384 0 0 0 560.384 1024H819.2a204.8 204.8 0 0 0 204.8-204.8V204.8a204.8 204.8 0 0 0-89.088-168.96 755.2 755.2 0 0 0-437.76 685.312z" fill="#FFA96E" p-id="76162"></path><path d="M512 512m-332.8 0a332.8 332.8 0 1 0 665.6 0 332.8 332.8 0 1 0-665.6 0Z" fill="#FFEADC" p-id="76163"></path><path d="M512 179.2A332.8 332.8 0 0 0 252.672 720.128 332.8 332.8 0 0 0 720.128 252.672 331.264 331.264 0 0 0 512 179.2z" fill="#FFFFFF" p-id="76164"></path><path d="M383.943816 511.998714m9.050967-9.050967l109.878737-109.878737q9.050967-9.050967 18.101933 0l109.878737 109.878737q9.050967 9.050967 0 18.101933l-109.878737 109.878737q-9.050967 9.050967-18.101933 0l-109.878737-109.878737q-9.050967-9.050967 0-18.101933Z" fill="#FFBB8D" p-id="76165"></path></svg>