<?xml version="1.0" standalone="no"?><!DOCTYPE svg PUBLIC "-//W3C//DTD SVG 1.1//EN" "http://www.w3.org/Graphics/SVG/1.1/DTD/svg11.dtd"><svg t="1586251297061" class="icon" viewBox="0 0 1024 1024" version="1.1" xmlns="http://www.w3.org/2000/svg" p-id="10157" xmlns:xlink="http://www.w3.org/1999/xlink" width="128" height="128"><defs><style type="text/css"></style></defs><path d="M512.5 554c-41.3 0-80.2-15.9-109.8-44.8-29.6-28.9-46.3-67.7-47.1-109-0.8-41.9 14.7-81.7 43.8-111.9s68.1-47.3 110.1-48.2c42.5-0.8 82.7 15.1 112.9 44.8 29.6 28.9 46.3 67.7 47.1 109 1.7 86.5-67.3 158.3-153.8 160.1h-3.2z m0.1-285.9H510c-34.4 0.7-66.6 14.7-90.4 39.6-23.9 24.8-36.6 57.5-35.9 91.9C385 469.3 442.8 526 512.5 526h2.6c71.1-1.4 127.8-60.4 126.4-131.5-1.4-69.7-59.3-126.4-128.9-126.4z" fill="#ffffff" p-id="10158"></path><path d="M279.3 748.9c-1.2-58.4 22.1-113.7 65.6-155.7 43.2-41.8 101.2-65.5 163.3-66.7 62.1-1.2 121 20.1 165.8 60.2 45.1 40.3 70.6 94.6 71.8 153l-28 0.6c-1-50.5-23.2-97.6-62.4-132.7-39.5-35.3-91.6-54.2-146.6-53.1-113.2 2.3-203.5 89.2-201.5 193.9l-28 0.5z" fill="#ffffff" p-id="10159"></path><path d="M512.4 919.7c-107.5 0-209-41.5-285.9-116.7-77-75.4-120.6-176.2-122.7-284-1.1-55.2 8.6-108.9 29-159.8 19.6-49.1 48.2-93.4 85-131.7 36.8-38.3 79.9-68.6 128.2-90.2 50-22.3 103.3-34.2 158.5-35.3 2.8-0.1 5.5-0.1 8.3-0.1 107.5 0 209 41.5 285.9 116.7 77 75.4 120.6 176.2 122.7 284 1.1 55.2-8.6 108.9-29 159.8-19.6 49.1-48.2 93.4-85 131.7-36.8 38.3-79.9 68.6-128.2 90.2-50 22.3-103.3 34.2-158.5 35.3-2.8 0-5.6 0.1-8.3 0.1z m0.3-789.7c-2.6 0-5.2 0-7.7 0.1-210 4.2-377.4 178.4-373.2 388.4 4.1 205.8 174.8 373.3 380.6 373.3 2.6 0 5.2 0 7.7-0.1 210-4.2 377.4-178.4 373.2-388.4C889.2 297.4 718.4 130 512.7 130z" fill="#ffffff" p-id="10160"></path></svg>